<?xml version="1.0" encoding="utf-8"?>

<!DOCTYPE svg PUBLIC "-//W3C//DTD SVG 1.1//EN" "http://www.w3.org/Graphics/SVG/1.1/DTD/svg11.dtd">
<svg version="1.1" id="Layer_1" xmlns="http://www.w3.org/2000/svg" xmlns:xlink="http://www.w3.org/1999/xlink" x="0px" y="0px"
	 viewBox="0 0 1280.89 1716.044" enable-background="new 0 0 1280.89 1716.044" xml:space="preserve">
<g>
	<path d="M299.199,58.499c43.406-4.517,123.591,19.898,183.741,70.163c4.424,3.433,9.095,6.53,13.766,9.623
		c48.624-24.939,119.257-65.702,235.569-29.116c156.944,22.254,253.51,178.529,287.991,336.698c0.897-1.14,0.663-2.709,1.037-4.041
		c5.53-26.343,13.668-23.719,22.735-38.132c27.539-47.653-5.646-107.378-27.393-123.939
		c-55.756-39.087-102.823-101.558-69.308-162.786c-5.377,41.961,50.554,92.249,85.709,118.45
		c69.028,58.054,43.036,137.533,24.151,162.926c-12.746,16.814-32.169,14.041-35.231,51.44c-0.391,4.938-0.521-0.659,4.699,28.149
		c3.461,0.285,6.848,1.093,10.211,1.957c4.325-6.199,170.094-161.279,100.84-295.965c30.106,23.932,56.522,83.644,30.036,182.246
		c-22.771,80.387-102.115,114.72-120.506,130.67c-0.104,5.95,8.03,14.665-1.696,23.483c15.289,2.91,25.716,13.743,28.219,25.613
		c2.419,10.769-1.462,17.524,4.251,30.835c-0.257,0.196-0.762,0.584-1.014,0.776c-13.654-9.52-21.687,0.552-30.41,2.504
		c0.472,5.545,0.906,11.099,1.205,16.658c20.783-9.375,41.121-19.984,59.685-33.288c19.353-13.952,47.74-40.513,47.923-62.843
		c8.47,27.002,3.708,54.01-13.673,78.342c-31.234,43.965-88.314,64.22-94.86,68.276c-2.779,33.937-9.772,67.435-19.507,100.036
		c0,0,14.963-20.944,40.43-37.609c68.672-44.628,113.694-15.274,126.784-37.604c-18.768,56.406-60.73,29.601-128.349,65.076
		c-31.682,16.493-48.931,40.552-51.081,46.564c-1.698,4.519-3.12,4.2-6.348,6.4c-1.822-0.677-3.76-0.99-5.62-1.509
		c-9.098,0.081-17.594-12.515-28.411-32.036c-23.714-41.359-14.565-45.711-29.042-88.274
		c-23.6-68.453-72.285-124.589-141.312-141.984c28.796-12.904,69.939-13.055,103.124,9.118c8.174-11.034,22.06-14.89,35.273-13.061
		c-15.068-20.363,12.273-17.352,25.029-26.612c3.017-2.13,5.6-10.081,14.252-8.796c5.839,0.864,11.982,4.349,13.561,10.422
		c2.663-4.592,6.045-8.791,10.291-12.01c-24.792-54.563-65.199-99.447-113.522-131.843
		c-36.526,29.546-85.311,105.803-138.07,113.181c-87.904,16.389-115.619-58.325-108.173-66.262
		c5.511,3.561,42.5,66.632,143.918-5.872c35.911-25.902,47.763-48.573,74.143-57.695c-34.436-19.156-41.815,6.478-69.247-21.843
		c-0.799-0.939-2.167-0.719-3.242-0.944c14.319,15.113,3.176,33.443,3.256,37.59c-0.383,5.564,2.289,10.767,5.736,14.953
		c-0.192,0.229-0.579,0.691-0.771,0.92c-12.603-3.807-20.342,0.863-30.84,0.121c-13.144-0.98-24.794-10.568-29.439-24.515
		c-1.789,3.751-5.764,5.928-9.805,6.217c-6.624,1.068-15.208-5.842-21.773,4.863c-2.716,4.189-1.966,6.108-4.891,8.6
		c-1.953-1.144-1.798-3.606-1.766-5.559c0.483-13.613-5.643-20.03-6.708-28.967c-1.092-8.532,3.209-21.711,15.177-31.274
		c-9.458-1.141-17.806-16.145-8.259-23.954c11.924-8.867,1.253-46.205,25.744-31.793c-9.04-32.652,15.908-39.975,29.667-56.299
		c1.832-3.112,0.894,5.029,8.441,11.954c3.115,3.086,11.066,5.629,15.294,22.254c24.206-18.91,47.278,7.567,48.278,8.086
		c1.705,1.07,3.737,1.285,5.629,1.859c0.495,0.92-0.36,1.471-1.158,1.621c-11.488,3.333-1.527,34.328-37.581,35.329
		c5.839,4.653,11.888,9.034,17.914,13.439c21.133-6.521,31.852,15.867,44.461,39.033c4.624-0.981,21.957,9.353,26.071,11.8
		c2.022,0.994,67.322-12.643,103.353,29.144c0.776,0.939,1.579,1.873,2.495,2.7c-31.434-93.454-97.944-184.881-192.089-227.367
		c-1.76-0.724-16.031,0.349-26.37,4.737c-22.41,10.016-28.82,67.566-152.219,72.91c-2.496,1.514-28.408,21.735-49.703,40.44
		c-27.742,70.009-145.431,95.473-150.514,97.462c-131.083,45.165-180.331,2.003-255.969,48.465
		c7.432,9.373,7.856,17.814,5.638,22.693c-2.896,1.556-6.909,1.415-9.408-0.874c-1.313-1.154-1.999-2.798-2.728-4.34
		c-6.238,18.355-17.566,10.922-11.361-3.256c-8.795-1.619-7.754,1.958-11.627,2.635c-1.637-5.656,9.992-25.464,27.86-17.812
		c69.972-45.46,124.363-7.7,234.887-43.032c2.476-0.944,4.699-2.466,6.853-3.994c-113.39,5.9-134.737-17.287-164.949-25.431
		c-34.584-9.591-66.877-2.188-88.802,15.485c2.249,7.617,1.598,18.147-4.447,23.291c-4.745,0.102-8.972-2.551-8.614-10.095
		c-12.462,14.287-21.137,2.739-8.946-7.675c-7.747-5.505-8.206-1.251-11.421-2.686l-0.145-0.467
		c2.16-5.947,19.751-17.609,32.601-3.751c25.994-21.201,64.621-28.462,114.606-6.759c127.439,52.99,277.735-24.292,296.735-72.919
		c-40.687,24.877-92.471,47.982-123.687,59.106c-106.985,26.844-200.557,6.102-262.714-83.822
		c-26.527-38.835-63.725-68.847-91.969-83.401c29.972-16.821,86.694,28.722,112.018,52.071
		c71.872,66.294,129.929,107.566,227.273,95.477c68.018-8.393,132.349-41.67,137.327-46.666
		c-126.066,31.516-311.285,48.766-346.419-76.353c-8.29-2.347-15.038-6.639-17.672-14.738c3.785-5.661,7.936-5.925,13.052-2.901
		c-1.737-4.879-3.723-12.843,1.252-14.276c5.259-2.04,8.44,4.45,9.749,10.006c8.384-4.395,4.913-6.712,7.885-9.132
		c3.788,4.091,7.815,23.804-10.543,30.733c47.52,158.234,350.612,72.925,355.15,68.636c12.72-10.987,25.828-21.516,38.982-31.975
		c-37.403,0.168-75.245-6.979-108.883-23.698c-176.58,97.682-250.801-13.277-241.549-33.479c3.065,2.466,10.696,41.404,112.2,31.984
		c31.247-2.902,53.079-11.524,80.692-25.851c-54.104-32.249-77.458-53.486-127.928-61.769c-33.202-5.456-94.629-9.453-110.43,20.428
		c-0.673,1.317-1.57,2.518-2.7,3.485C204.691,115.818,235.618,62.902,299.199,58.499 M566.239,151.136
		c-8.021,3.77-16.027,7.624-23.651,12.15c29.892,13.678,61.465,23.74,93.837,29.509c37.958-27.134,93.161-61.63,139.523-66.608
		c-1.793-1.456-23.311-8.11-40.547-10.758C677.267,114.139,619.029,126.896,566.239,151.136 M769.086,132.852
		c-41.023,6.937-90.48,36.994-124.64,61.213c10.232,1.878,33.786,4.436,37.375,3.672c18.595-3.415,37.066-15.348,51.459-27.677
		c27.885-24.191,20.048-29.048,36.847-35.946c1.551-0.677,3.265-1.018,4.695-1.981C772.884,132.161,770.987,132.544,769.086,132.852
		 M906.301,344.252c52.561,37.114,90.104,83.19,112.938,133.23c0.126,0.902,0.92,0.925,1.686,0.953
		c-7.652-43.869-20.132-87.728-22.67-91.46C982.915,349.538,941.628,325.987,906.301,344.252 M976.912,586.688
		c1.429,10.982-0.958,23.081-10.581,28.836c25.899,78.328-15.85,99.101,18.863,150.659c1.004,1.402,6.382,13.298,14.92,18.083
		c-0.906-4.003,1.364-7.596,2.555-11.258c-16.185-15.803-22.253-33.264-23.539-57.06c-2.457-51.46,15.706-83.659,49.525-107.818
		c-3.131-2.684-13.667-11.956-19.372-12.015c-4.202,0.037-3.709,12.878-0.612,24.594
		C1008.672,620.709,997.252,606.479,976.912,586.688 M1004.09,769.037c12.197-35.035,21.577-71.191,25.874-108.089
		C988.652,701.748,989.077,749.249,1004.09,769.037z"/>
	<path d="M856.463,670.711c28.069-9.198,57.121-12.207,74.33-11.178c3.395,0.015,10.504,3.634,3.887,13.267
		c-15.095,21.42-43.385,9.667-98.56,55.523c-50.636,42.183-79.714,102.652-80.351,163.486
		c21.221,18.149,36.618,40.327,36.618,40.327c-3.193-7.346-16.035-28.59-10.071-63.404c4.412-25.396,20.926-58.681,44.284-59.942
		c-5.781,11.338-8.889,32.85-0.056,61.376c17.604,56.434,59.751,91.855,93.501,137.542c8.86-22.98,29.543-64.524,29.546-64.534
		c5.158-14.776-0.343-15.721-1.7-18.704c-4.914-9.381,3.17-29.638,15.294-22.819c-0.14-6.404,0.075-12.813,1.135-19.134
		c-8.204,7.588-21.433,8.66-30.597,4.274c-7.731-3.923-15.472-2.159-22.217,3.345c-1.303-0.972-0.28-2.41-0.042-3.63
		c3.842-13.758-4.995-25.665,4.438-41.009c4.615-7.722,12.402-13.108,20.867-15.864c-6.221-3.439-6.803-10.854-4.807-17.704
		c4.662-16.372-17.714-16.441-12.832-20.213c2.401-1.341,5.274-0.439,7.885-0.593c13.731,0.208,21.304-8.479,33.914-5.274
		c9.226,2.2,17.527,7.866,22.983,15.625c1.117-8.572,14.058-16.342,22.259-9.604c3.292,2.581,2.45,6.181,18.891,9.422
		c5.759,1.194,24.751,1.102,14.089,19.18c31.959-7.844,38.776,15.496,53.295,29.518c0.841,0.934,2.303,1.56,2.551,2.887
		c-1.074,0.808-2.504,0.827-3.719,1.299c-14.082,4.787-9.228,15.32-31.755,20.395c12.763,16.673,2.663,37.54-6.918,45.036
		c-4.152,3.249-3.531,6.767-5.059,9.016c-1.299-1.065-1.247-2.962-2.457-4.078c-8.647-8.869-33.353-3.893-32.844-36.235
		c-5.386,6.291-21.073,25.695-24.753,33.587c2.53-0.55,9.625-3.494,17.802,3.069c-11.078,4.218-12.592,22.728-29.518,24.795
		c-16.427,14.474-16.81,13.765-18.713,16.798c-0.732,1.002-17.023,27.043-26.374,56.308
		c65.323,97.057,56.464,177.297,45.302,293.466c0.235,0.444,13.571,26.46,13.977,26.753c-1.161-15.318-17.505-104.735,45.41-207.593
		c14.417-23.632,16.984-22.903,33.395-67.094c24.294-66.805,32.837-93.668,34.442-126.751c1.635-36.688-8.364-63.025-18.47-75.526
		c38.934,21.383,57.827,64.594,61.745,108.678c11.894,129.344-106.207,193.167-141.158,293.582
		c-13.384,38.467-13.318,71.888-11.295,84.116c17.293,38.83,20.506,51.426,25.655,75.269c0.15-0.014,0.444-0.042,0.589-0.061
		c-0.604-4.432,0.458-35.976,18.746-60.152c22.085-29.768,62.223-40.68,99.574-39.267c7.922,0.533,24.237,2.381,41.084-11.604
		c8.343-6.942,14.981-15.91,19.423-25.795c-11.52,147.361-144.815,5.53-172.297,161.37c-0.881,5.741,3.043,13.373,7.432,36.184
		c12.357,65.178,3.003,173.799-5.022,169.433c-3.255-1.74-0.217-4.232,1.981-21.086c10.609-88.925-4.324-169.583-12.248-179.266
		c-0.126,0.911,0.308,2.144-0.612,2.798c-6.098,3.496-49.698-52.05-51.174-52.912c-37.655-21.227-83.469-22.249-118.679-9.361
		c-15.828,5.927-16.28,9.298-33.475,17.812c-60.328,29.911-134.704,41.921-139.962-23.73
		c28.093,28.781,106.205-16.447,169.227-27.995c32.15-5.908,63.837-4.924,102.652,15.738c-2.453-4.504-20.583-28.796-34.357-60.292
		c-5.952-10.974-64.631-25.661-106.571-49.021c-98.69-55.185-67.779-131.721-58.583-138.654c0.902,1.163,0.458,2.691,0.551,4.059
		c1.23,46.875,44.367,59.137,146.983,140.943c-0.684-1.765-15.177-37.669-15.177-37.669
		c-48.86-46.455-67.327-103.196-32.751-157.316c-61.496-64.353-119.395-118.336-132.329-197.251
		c-0.406-1.752-0.308-3.653-0.948-5.316c-15.315-10.083-42.136-22.419-46.433-22.637c-6.914-0.388-13.813-0.99-20.703-1.696
		c-14.184,8.387-27.393-5.926-38.454-2.714c2.193-7.412,6.371-10.768,12.65-12.865c-5.392-3.723-26.909-9.366-39.743-12.911
		c21.557,30.419-9.516,37.945-4.695,52.529c-0.159,0.206-0.476,0.617-0.64,0.822c-1.612-0.752-2.709-2.331-4.396-2.994
		c-3.041-1.719-6.647-0.916-9.88-1.929c-15.297-4.168-27.491-15.937-26.729-31.737c-7.091,3.064-15.294,5.078-22.857,2.537
		c-10.024-3.402-16.819,0.494-18.358,0.789c-0.131-0.168-0.392-0.509-0.523-0.677c1.985-9.039,2.298-18.335,2.228-27.556
		c0.419-12.951,9.933-25.141,24.445-30.831c-19.075-7.562-4.463-19.122-0.668-23.1c13.004-13.41,8.783-15.998,10.763-20.414
		c3.027-8.907,17.131-10.687,23.385-4.279c-0.294-9.044,2.966-18.036,8.548-25.104c9.305-11.763,19.453-7.566,32.283-17.237
		c1.896-1.369,3.602-3.317,6.045-3.634c3.994,1.886-5.634,8.164-3.513,17.092c1.545,7.128,16.828,12.664,11.239,24.132
		c14.372-4.885,28.252-1.04,36.203,7.198c6.241,6.11,8.721,14.939,14.757,21.222c1.528,1.775,3.531,3.036,5.195,4.667
		c-0.065,1.448-1.738,0.944-2.691,1.032c-15.047-0.149-16.068,11.078-22.815,17.111c-5.895,5.283-13.949,8.81-21.965,7.708
		c4.653,4.41,8.478,9.562,12.183,14.775c6.857-13.43,27.619,0.99,25.781,12.902c-1.886,10.997,25.212,19.708,58.041,39.36
		C711.02,785.875,765.981,700.341,856.463,670.711 M756.852,913.815c3.899,36.759,18.407,73.749,35.941,100.816
		c16.589,18.635,46.459,51.168,53.585,58.293C829.365,1007.476,805.317,959.989,756.852,913.815 M818.429,974.986
		c1.653,5.638,24.463,39.282,42.486,113.092c8.5,9.459,22.203,18.74,44.153,59.073c0.855,1.443,1.378,3.116,2.597,4.33
		c-4.996-36.876-5.077-63.53-3.513-79.926c-24.289-32.266-58.038-61.506-82.561-92.814
		C820.568,977.457,819.709,976.027,818.429,974.986 M917.096,1089.564c-6.957,69.68,11.335,129.048,42.738,195.737
		c3.742,7.703,7.241,15.574,11.762,22.861C982.289,1253.338,969.454,1166.223,917.096,1089.564 M862.867,1098.332
		c12.02,66.193-7.746,69.565,39.907,109.028c13.765,11.351,23.567,23.856,23.567,23.856c-19.733-59.789-5.999-48.279-33.741-94.515
		C884.177,1122.87,874.821,1109.361,862.867,1098.332 M852.646,1100.597c-0.731,25.081,6.983,47.818,8.586,49.492
		C858.043,1123.679,853.679,1102.115,852.646,1100.597 M890.502,1248.748c0.725,2.88,6.381,18.396,12.94,34.568
		c0.682,1.854,2.593,2.756,3.961,4.055c18.144,15.479,59.696,44.861,97.878,115.106c0.621,0.962,0.869,2.354,2.055,2.835
		c-20.656-66.762-42.333-92.001-53.169-111.084C941.878,1273.86,918.412,1270.681,890.502,1248.748 M920.866,1322.241
		c44.782,93.748,45.664,54.617,91.343,113.877c2.107,2.569,3.784,5.475,5.993,7.965
		C1009.372,1408.966,967.993,1349.856,920.866,1322.241 M983.433,1418.456c0.757,1.724,25.131,32.165,34.432,37.412
		C1007.499,1438.48,986.96,1419.914,983.433,1418.456z"/>
</g>
</svg>
